<?xml version="1.0" encoding="utf-8"?>
<!-- Generator: Adobe Illustrator 23.0.6, SVG Export Plug-In . SVG Version: 6.00 Build 0)  -->
<svg version="1.1" id="Layer_1" xmlns="http://www.w3.org/2000/svg" xmlns:xlink="http://www.w3.org/1999/xlink" x="0px" y="0px"
	 viewBox="0 0 615.9 246.7" style="enable-background:new 0 0 615.9 246.7;" xml:space="preserve">
<style type="text/css">
	.st0{fill:#333132;}
</style>
<g>
	<path class="st0" d="M345.6,139.6l15.1-57.5h17l-24.2,79.8h-15.7l-24.1-79.8h17L345.6,139.6z"/>
	<path class="st0" d="M140.3,138c-0.3,4-1.1,7.6-2.6,10.9c-1.5,3.2-3.5,6-5.9,8.2c-2.5,2.3-5.4,4-8.9,5.2c-3.4,1.2-7.2,1.8-11.4,1.8
		c-4.7,0-8.9-0.9-12.5-2.6c-3.7-1.7-6.7-4.2-9.2-7.3c-2.5-3.1-4.4-6.9-5.7-11.3c-1.3-4.4-2-9.2-2-14.5v-10.7
		c0-5.3,0.7-10.1,2.1-14.5c1.4-4.4,3.4-8.1,5.9-11.3c2.6-3.1,5.7-5.6,9.3-7.3c3.6-1.7,7.7-2.6,12.2-2.6c4.4,0,8.3,0.6,11.7,1.9
		c3.4,1.2,6.3,3,8.7,5.3c2.4,2.3,4.3,5.1,5.7,8.4c1.4,3.3,2.3,7.1,2.6,11.2h-15.3c-0.1-2.4-0.5-4.5-1.1-6.2
		c-0.6-1.8-1.4-3.3-2.5-4.5c-1.1-1.2-2.4-2.1-4.1-2.7c-1.6-0.6-3.6-0.9-5.8-0.9c-2.4,0-4.4,0.5-6.2,1.5c-1.8,1-3.2,2.5-4.4,4.5
		c-1.2,2-2,4.4-2.5,7.3c-0.5,2.9-0.8,6.1-0.8,9.8v10.9c0,7.9,1.1,13.7,3.3,17.4c2.2,3.8,5.7,5.6,10.5,5.6c4,0,7.2-1.1,9.5-3.2
		c2.3-2.1,3.6-5.6,3.9-10.4H140.3z"/>
	<path class="st0" d="M220.3,129.4c0,5.1-0.7,9.8-2,14.1c-1.4,4.3-3.3,8-5.9,11.1c-2.6,3.1-5.7,5.5-9.3,7.3
		c-3.7,1.7-7.8,2.6-12.4,2.6s-8.7-0.9-12.3-2.6c-3.6-1.7-6.6-4.2-9-7.3c-2.4-3.1-4.3-6.8-5.6-11.1c-1.3-4.3-1.9-9-1.9-14.1v-11.6
		c0-5.1,0.6-9.8,1.9-14.1c1.3-4.3,3.1-8,5.6-11.2c2.4-3.1,5.5-5.6,9-7.3c3.6-1.8,7.6-2.6,12.2-2.6c4.6,0,8.8,0.9,12.5,2.6
		c3.7,1.8,6.8,4.2,9.3,7.3c2.6,3.1,4.5,6.8,5.9,11.2c1.4,4.3,2,9,2,14.1V129.4z M204.7,117.7c0-3.3-0.3-6.2-0.8-9
		c-0.5-2.7-1.4-5.1-2.5-7.1c-1.1-2-2.6-3.5-4.4-4.6c-1.8-1.1-3.9-1.7-6.4-1.7c-2.5,0-4.6,0.6-6.2,1.7c-1.7,1.1-3,2.7-4.1,4.6
		c-1,2-1.8,4.3-2.2,7.1c-0.4,2.7-0.7,5.7-0.7,9v11.7c0,3.2,0.2,6.2,0.7,8.9c0.4,2.7,1.2,5.1,2.2,7.1c1,2,2.4,3.6,4.1,4.7
		c1.7,1.1,3.8,1.7,6.3,1.7c2.5,0,4.6-0.6,6.4-1.7c1.8-1.1,3.2-2.7,4.3-4.7c1.1-2,1.9-4.4,2.5-7.1c0.5-2.7,0.8-5.7,0.8-9V117.7z"/>
	<path class="st0" d="M268.8,132.1h-11.7v29.8h-15.4V82.1h26.7c4.4,0,8.4,0.5,12,1.6s6.6,2.6,9.2,4.6c2.5,2,4.5,4.5,5.9,7.5
		c1.4,3,2.1,6.5,2.1,10.4c0,2.8-0.3,5.4-1,7.7c-0.7,2.3-1.6,4.3-2.9,6.1c-1.3,1.8-2.8,3.4-4.5,4.7c-1.8,1.4-3.8,2.5-5.9,3.5
		l17.2,32.9v0.7h-16.5L268.8,132.1z M257.1,119.6h11.4c4.3,0,7.7-1.1,10.1-3.3c2.4-2.2,3.5-5.2,3.5-9.1c0-4-1.2-7.1-3.5-9.3
		c-2.3-2.2-5.7-3.3-10.2-3.3h-11.3V119.6z"/>
	<path class="st0" d="M456.9,82.1l0.1,52.9c0,4.5-0.7,8.4-2,11.9c-1.3,3.5-3.3,6.4-5.9,8.8c-2.6,2.4-5.7,4.2-9.3,5.5
		c-3.7,1.2-7.9,1.9-12.6,1.9c-4.4,0-8.4-0.6-12-1.9c-3.6-1.2-6.6-3.1-9.1-5.4c-2.5-2.4-4.5-5.3-5.9-8.8c-1.4-3.5-2.1-7.5-2.1-11.9
		l0.1-52.9h16.9l0.1,52.9c0,5.2,1.1,9,3.1,11.7c2,2.6,5,3.9,8.9,3.9c4.1,0,7.3-1.3,9.5-3.9c2.2-2.6,3.3-6.5,3.3-11.7l0.1-52.9H456.9
		z"/>
	<path class="st0" d="M498.5,82.1l7.6,30l8.6-30h19.1v79.8h-14.1v-23.6l0.7-37.3l-10.5,34.6h-7.6l-9.4-33.2l0.7,35.8v23.6h-14.1
		V82.1H498.5z"/>
</g>
<g>
</g>
<g>
</g>
<g>
</g>
<g>
</g>
<g>
</g>
<g>
</g>
</svg>
